<svg width="645" height="190" viewBox="0 0 645 190" fill="none" xmlns="http://www.w3.org/2000/svg">
<rect x="2" y="2" width="641" height="186" rx="14" fill="white" stroke="#292929" stroke-width="4"/>
<path d="M160.934 91.5305C163.613 93.0677 163.613 96.9323 160.934 98.4695L58.2407 157.391C55.574 158.921 52.25 156.996 52.25 153.922L52.25 36.078C52.25 33.0036 55.574 31.0785 58.2407 32.6085L160.934 91.5305Z" stroke="#292929" stroke-width="4"/>
<path d="M54 33L134 114.5" stroke="#292929" stroke-width="4"/>
<path d="M54 157.5L132 74" stroke="#292929" stroke-width="4"/>
<path d="M228.647 106.357L228.651 116H247C246.249 120.786 241.569 134 228.651 134C217.505 134 206.5 123.074 206.5 111.748C206.5 100.421 217.505 88 228.651 88C234.989 88 241.076 90.6803 243.5 93L250.523 87.0069C244.834 81.7012 237.463 78.5 228.651 78.5C210.603 78.5 196 93.0356 196 111C196 128.964 210.603 143.5 228.651 143.5C247.491 143.5 260 130.309 260 111.748C260 109.615 259.771 107.99 259.49 106.365L228.651 106.352L228.647 106.357Z" fill="#292929"/>
<path d="M279.409 136.639C276.099 136.639 273.237 135.936 270.822 134.53C268.422 133.109 266.568 131.135 265.261 128.607C263.955 126.064 263.301 123.116 263.301 119.764C263.301 116.384 263.955 113.429 265.261 110.901C266.568 108.358 268.422 106.384 270.822 104.977C273.237 103.557 276.099 102.847 279.409 102.847C282.719 102.847 285.574 103.557 287.974 104.977C290.389 106.384 292.25 108.358 293.557 110.901C294.864 113.429 295.517 116.384 295.517 119.764C295.517 123.116 294.864 126.064 293.557 128.607C292.25 131.135 290.389 133.109 287.974 134.53C285.574 135.936 282.719 136.639 279.409 136.639ZM279.452 129.608C280.957 129.608 282.214 129.182 283.223 128.33C284.232 127.463 284.991 126.284 285.503 124.793C286.028 123.301 286.291 121.604 286.291 119.7C286.291 117.797 286.028 116.099 285.503 114.608C284.991 113.116 284.232 111.937 283.223 111.071C282.214 110.205 280.957 109.771 279.452 109.771C277.932 109.771 276.653 110.205 275.616 111.071C274.594 111.937 273.82 113.116 273.294 114.608C272.783 116.099 272.527 117.797 272.527 119.7C272.527 121.604 272.783 123.301 273.294 124.793C273.82 126.284 274.594 127.463 275.616 128.33C276.653 129.182 277.932 129.608 279.452 129.608ZM316.206 136.639C312.896 136.639 310.034 135.936 307.619 134.53C305.219 133.109 303.365 131.135 302.058 128.607C300.751 126.064 300.098 123.116 300.098 119.764C300.098 116.384 300.751 113.429 302.058 110.901C303.365 108.358 305.219 106.384 307.619 104.977C310.034 103.557 312.896 102.847 316.206 102.847C319.516 102.847 322.371 103.557 324.771 104.977C327.186 106.384 329.047 108.358 330.354 110.901C331.661 113.429 332.314 116.384 332.314 119.764C332.314 123.116 331.661 126.064 330.354 128.607C329.047 131.135 327.186 133.109 324.771 134.53C322.371 135.936 319.516 136.639 316.206 136.639ZM316.249 129.608C317.754 129.608 319.011 129.182 320.02 128.33C321.028 127.463 321.788 126.284 322.3 124.793C322.825 123.301 323.088 121.604 323.088 119.7C323.088 117.797 322.825 116.099 322.3 114.608C321.788 113.116 321.028 111.937 320.02 111.071C319.011 110.205 317.754 109.771 316.249 109.771C314.729 109.771 313.45 110.205 312.413 111.071C311.391 111.937 310.616 113.116 310.091 114.608C309.58 116.099 309.324 117.797 309.324 119.7C309.324 121.604 309.58 123.301 310.091 124.793C310.616 126.284 311.391 127.463 312.413 128.33C313.45 129.182 314.729 129.608 316.249 129.608ZM352.96 148.955C350.02 148.955 347.499 148.55 345.396 147.74C343.308 146.945 341.646 145.858 340.411 144.48C339.175 143.102 338.372 141.554 338.003 139.835L346.398 138.706C346.653 139.359 347.058 139.97 347.612 140.538C348.166 141.107 348.898 141.561 349.807 141.902C350.73 142.257 351.852 142.435 353.173 142.435C355.148 142.435 356.774 141.952 358.053 140.986C359.345 140.034 359.991 138.436 359.991 136.192V130.205H359.608C359.21 131.114 358.614 131.973 357.818 132.783C357.023 133.592 356 134.253 354.75 134.764C353.5 135.276 352.009 135.531 350.276 135.531C347.818 135.531 345.581 134.963 343.564 133.827C341.561 132.676 339.963 130.922 338.77 128.564C337.591 126.192 337.001 123.195 337.001 119.572C337.001 115.865 337.605 112.768 338.812 110.283C340.02 107.797 341.625 105.936 343.628 104.7C345.645 103.464 347.854 102.847 350.254 102.847C352.087 102.847 353.621 103.159 354.857 103.784C356.092 104.395 357.087 105.162 357.839 106.085C358.607 106.994 359.196 107.889 359.608 108.77H359.949V103.273H368.962V136.32C368.962 139.104 368.28 141.433 366.916 143.308C365.553 145.183 363.663 146.589 361.249 147.527C358.848 148.479 356.085 148.955 352.96 148.955ZM353.152 128.713C354.615 128.713 355.851 128.351 356.859 127.626C357.882 126.888 358.663 125.837 359.203 124.473C359.757 123.095 360.034 121.447 360.034 119.53C360.034 117.612 359.764 115.95 359.224 114.544C358.685 113.124 357.903 112.023 356.881 111.241C355.858 110.46 354.615 110.07 353.152 110.07C351.661 110.07 350.403 110.474 349.381 111.284C348.358 112.08 347.584 113.187 347.058 114.608C346.533 116.028 346.27 117.669 346.27 119.53C346.27 121.419 346.533 123.053 347.058 124.43C347.598 125.794 348.372 126.852 349.381 127.605C350.403 128.344 351.661 128.713 353.152 128.713ZM385.261 92.3636V136H376.185V92.3636H385.261ZM407.447 136.639C404.081 136.639 401.183 135.957 398.754 134.594C396.339 133.216 394.478 131.27 393.172 128.756C391.865 126.227 391.211 123.237 391.211 119.786C391.211 116.419 391.865 113.464 393.172 110.922C394.478 108.379 396.318 106.398 398.69 104.977C401.076 103.557 403.875 102.847 407.085 102.847C409.244 102.847 411.254 103.195 413.115 103.891C414.99 104.572 416.623 105.602 418.015 106.98C419.422 108.358 420.515 110.091 421.297 112.179C422.078 114.253 422.468 116.682 422.468 119.466V121.959H394.833V116.334H413.924C413.924 115.027 413.64 113.869 413.072 112.861C412.504 111.852 411.716 111.064 410.707 110.496C409.713 109.913 408.555 109.622 407.234 109.622C405.856 109.622 404.635 109.942 403.569 110.581C402.518 111.206 401.694 112.051 401.098 113.116C400.501 114.168 400.196 115.339 400.181 116.632V121.98C400.181 123.599 400.48 124.999 401.076 126.178C401.687 127.357 402.547 128.266 403.654 128.905C404.762 129.544 406.076 129.864 407.596 129.864C408.605 129.864 409.528 129.722 410.366 129.438C411.204 129.153 411.922 128.727 412.518 128.159C413.115 127.591 413.569 126.895 413.882 126.071L422.277 126.625C421.85 128.642 420.977 130.403 419.656 131.909C418.349 133.401 416.659 134.565 414.585 135.403C412.525 136.227 410.146 136.639 407.447 136.639Z" fill="#292929"/>
<path d="M448.425 136V85.0909H468.51C472.371 85.0909 475.661 85.8284 478.379 87.3033C481.096 88.7616 483.168 90.7917 484.593 93.3935C486.035 95.9787 486.756 98.9616 486.756 102.342C486.756 105.723 486.027 108.706 484.568 111.291C483.11 113.876 480.997 115.89 478.229 117.332C475.478 118.773 472.147 119.494 468.237 119.494H455.435V110.869H466.496C468.568 110.869 470.275 110.512 471.617 109.8C472.976 109.071 473.987 108.068 474.65 106.792C475.329 105.499 475.669 104.016 475.669 102.342C475.669 100.652 475.329 99.1771 474.65 97.9176C473.987 96.6416 472.976 95.6555 471.617 94.9595C470.258 94.2469 468.535 93.8906 466.447 93.8906H459.188V136H448.425ZM502.021 92.3636V136H492.944V92.3636H502.021ZM518.624 136.618C516.536 136.618 514.676 136.256 513.042 135.531C511.409 134.793 510.116 133.706 509.164 132.271C508.227 130.822 507.758 129.018 507.758 126.859C507.758 125.041 508.092 123.514 508.759 122.278C509.427 121.043 510.336 120.048 511.487 119.295C512.637 118.543 513.944 117.974 515.407 117.591C516.884 117.207 518.433 116.938 520.052 116.781C521.955 116.582 523.49 116.398 524.654 116.227C525.819 116.043 526.664 115.773 527.19 115.418C527.715 115.062 527.978 114.537 527.978 113.841V113.713C527.978 112.364 527.552 111.32 526.7 110.581C525.862 109.842 524.669 109.473 523.12 109.473C521.487 109.473 520.187 109.835 519.221 110.56C518.255 111.27 517.616 112.165 517.303 113.244L508.909 112.562C509.335 110.574 510.173 108.855 511.423 107.406C512.673 105.943 514.285 104.821 516.259 104.04C518.248 103.244 520.549 102.847 523.163 102.847C524.981 102.847 526.721 103.06 528.383 103.486C530.059 103.912 531.544 104.572 532.836 105.467C534.143 106.362 535.173 107.513 535.926 108.919C536.678 110.311 537.055 111.98 537.055 113.926V136H528.447V131.462H528.191C527.666 132.484 526.963 133.386 526.082 134.168C525.201 134.935 524.143 135.538 522.907 135.979C521.671 136.405 520.244 136.618 518.624 136.618ZM521.224 130.354C522.559 130.354 523.738 130.091 524.761 129.565C525.784 129.026 526.586 128.301 527.169 127.392C527.751 126.483 528.042 125.453 528.042 124.303V120.83C527.758 121.014 527.367 121.185 526.87 121.341C526.387 121.483 525.84 121.618 525.23 121.746C524.619 121.859 524.008 121.966 523.397 122.065C522.786 122.151 522.232 122.229 521.735 122.3C520.67 122.456 519.74 122.705 518.944 123.045C518.149 123.386 517.531 123.848 517.09 124.43C516.65 124.999 516.43 125.709 516.43 126.561C516.43 127.797 516.877 128.741 517.772 129.395C518.681 130.034 519.832 130.354 521.224 130.354ZM548.529 148.273C547.378 148.273 546.298 148.18 545.29 147.996C544.296 147.825 543.472 147.605 542.818 147.335L544.864 140.56C545.929 140.886 546.888 141.064 547.74 141.092C548.607 141.121 549.352 140.922 549.977 140.496C550.617 140.07 551.135 139.345 551.533 138.322L552.066 136.938L540.325 103.273H549.871L556.646 127.307H556.987L563.827 103.273H573.436L560.716 139.537C560.105 141.298 559.274 142.832 558.223 144.139C557.186 145.46 555.872 146.476 554.281 147.186C552.691 147.911 550.773 148.273 548.529 148.273Z" fill="#292929"/>
<path d="M207.352 59H198.876V32.8182H207.621C210.186 32.8182 212.389 33.3423 214.23 34.3906C216.071 35.4304 217.482 36.9261 218.462 38.8778C219.45 40.821 219.945 43.152 219.945 45.8707C219.945 48.598 219.446 50.9418 218.449 52.902C217.46 54.8622 216.028 56.3707 214.153 57.4276C212.278 58.4759 210.011 59 207.352 59ZM202.827 55.5483H207.135C209.129 55.5483 210.787 55.1733 212.108 54.4233C213.429 53.6648 214.418 52.5696 215.074 51.1378C215.73 49.6974 216.058 47.9418 216.058 45.8707C216.058 43.8168 215.73 42.0739 215.074 40.642C214.426 39.2102 213.459 38.1236 212.172 37.3821C210.885 36.6406 209.287 36.2699 207.378 36.2699H202.827V55.5483ZM228.807 32.8182V59H224.857V32.8182H228.807ZM248.84 39.696C248.703 38.4858 248.141 37.5483 247.152 36.8835C246.164 36.2102 244.919 35.8736 243.419 35.8736C242.346 35.8736 241.417 36.044 240.632 36.3849C239.848 36.7173 239.239 37.1776 238.804 37.7656C238.378 38.3452 238.165 39.0057 238.165 39.7472C238.165 40.3693 238.31 40.9062 238.6 41.358C238.898 41.8097 239.286 42.1889 239.763 42.4957C240.249 42.794 240.769 43.0455 241.323 43.25C241.877 43.446 242.409 43.608 242.921 43.7358L245.478 44.4006C246.313 44.6051 247.169 44.8821 248.047 45.2315C248.925 45.581 249.739 46.0412 250.489 46.6122C251.239 47.1832 251.844 47.8906 252.304 48.7344C252.773 49.5781 253.007 50.5881 253.007 51.7642C253.007 53.2472 252.624 54.5639 251.857 55.7145C251.098 56.8651 249.995 57.7727 248.546 58.4375C247.105 59.1023 245.363 59.4347 243.317 59.4347C241.357 59.4347 239.661 59.1236 238.229 58.5014C236.797 57.8793 235.676 56.9972 234.867 55.8551C234.057 54.7045 233.61 53.3409 233.525 51.7642H237.488C237.564 52.7102 237.871 53.4986 238.408 54.1293C238.953 54.7514 239.648 55.2159 240.492 55.5227C241.344 55.821 242.277 55.9702 243.292 55.9702C244.408 55.9702 245.401 55.7955 246.27 55.446C247.148 55.0881 247.838 54.5937 248.341 53.9631C248.844 53.3239 249.096 52.5781 249.096 51.7259C249.096 50.9503 248.874 50.3153 248.431 49.821C247.996 49.3267 247.404 48.9176 246.654 48.5938C245.912 48.2699 245.073 47.9844 244.135 47.7372L241.042 46.8935C238.945 46.3224 237.283 45.483 236.056 44.375C234.837 43.267 234.228 41.8011 234.228 39.9773C234.228 38.4687 234.637 37.152 235.455 36.027C236.273 34.902 237.381 34.0284 238.779 33.4062C240.176 32.7756 241.753 32.4602 243.509 32.4602C245.282 32.4602 246.846 32.7713 248.201 33.3935C249.564 34.0156 250.638 34.8722 251.422 35.9631C252.206 37.0455 252.615 38.2898 252.65 39.696H248.84ZM257.728 59V32.8182H267.06C269.097 32.8182 270.785 33.1889 272.123 33.9304C273.461 34.6719 274.462 35.6861 275.127 36.973C275.792 38.2514 276.124 39.6918 276.124 41.294C276.124 42.9048 275.788 44.3537 275.114 45.6406C274.45 46.919 273.444 47.9332 272.097 48.6832C270.759 49.4247 269.076 49.7955 267.048 49.7955H260.63V46.446H266.69C267.977 46.446 269.021 46.2244 269.822 45.7812C270.623 45.3295 271.211 44.7159 271.586 43.9403C271.961 43.1648 272.148 42.2827 272.148 41.294C272.148 40.3054 271.961 39.4276 271.586 38.6605C271.211 37.8935 270.619 37.2926 269.809 36.858C269.008 36.4233 267.951 36.206 266.638 36.206H261.678V59H257.728ZM303.498 45.9091C303.498 48.7045 302.987 51.108 301.964 53.1193C300.941 55.1222 299.539 56.6648 297.758 57.7472C295.985 58.821 293.97 59.358 291.711 59.358C289.444 59.358 287.42 58.821 285.639 57.7472C283.866 56.6648 282.468 55.1179 281.446 53.1065C280.423 51.0952 279.912 48.696 279.912 45.9091C279.912 43.1136 280.423 40.7145 281.446 38.7116C282.468 36.7003 283.866 35.1577 285.639 34.0838C287.42 33.0014 289.444 32.4602 291.711 32.4602C293.97 32.4602 295.985 33.0014 297.758 34.0838C299.539 35.1577 300.941 36.7003 301.964 38.7116C302.987 40.7145 303.498 43.1136 303.498 45.9091ZM299.586 45.9091C299.586 43.7784 299.241 41.9844 298.551 40.527C297.869 39.0611 296.931 37.9531 295.738 37.2031C294.554 36.4446 293.211 36.0653 291.711 36.0653C290.203 36.0653 288.856 36.4446 287.672 37.2031C286.487 37.9531 285.549 39.0611 284.859 40.527C284.177 41.9844 283.836 43.7784 283.836 45.9091C283.836 48.0398 284.177 49.8381 284.859 51.304C285.549 52.7614 286.487 53.8693 287.672 54.6278C288.856 55.3778 290.203 55.7528 291.711 55.7528C293.211 55.7528 294.554 55.3778 295.738 54.6278C296.931 53.8693 297.869 52.7614 298.551 51.304C299.241 49.8381 299.586 48.0398 299.586 45.9091ZM329.555 32.8182V59H325.925L312.616 39.7983H312.374V59H308.423V32.8182H312.08L325.401 52.0455H325.643V32.8182H329.555ZM339.268 32.8182V59H335.318V32.8182H339.268ZM347.309 32.8182L354.596 54.142H354.89L362.177 32.8182H366.447L357.025 59H352.461L343.039 32.8182H347.309ZM370.228 59V32.8182H386.643V36.2188H374.178V44.196H385.786V47.5838H374.178V55.5994H386.796V59H370.228ZM391.919 59V32.8182H395.87V55.5994H407.733V59H391.919ZM442.899 32.8182V59H439.268L425.96 39.7983H425.717V59H421.767V32.8182H425.423L438.744 52.0455H438.987V32.8182H442.899ZM471.404 45.9091C471.404 48.7045 470.893 51.108 469.87 53.1193C468.848 55.1222 467.446 56.6648 465.664 57.7472C463.892 58.821 461.876 59.358 459.618 59.358C457.35 59.358 455.326 58.821 453.545 57.7472C451.772 56.6648 450.375 55.1179 449.352 53.1065C448.329 51.0952 447.818 48.696 447.818 45.9091C447.818 43.1136 448.329 40.7145 449.352 38.7116C450.375 36.7003 451.772 35.1577 453.545 34.0838C455.326 33.0014 457.35 32.4602 459.618 32.4602C461.876 32.4602 463.892 33.0014 465.664 34.0838C467.446 35.1577 468.848 36.7003 469.87 38.7116C470.893 40.7145 471.404 43.1136 471.404 45.9091ZM467.493 45.9091C467.493 43.7784 467.147 41.9844 466.457 40.527C465.775 39.0611 464.838 37.9531 463.645 37.2031C462.46 36.4446 461.118 36.0653 459.618 36.0653C458.109 36.0653 456.762 36.4446 455.578 37.2031C454.393 37.9531 453.456 39.0611 452.765 40.527C452.083 41.9844 451.743 43.7784 451.743 45.9091C451.743 48.0398 452.083 49.8381 452.765 51.304C453.456 52.7614 454.393 53.8693 455.578 54.6278C456.762 55.3778 458.109 55.7528 459.618 55.7528C461.118 55.7528 462.46 55.3778 463.645 54.6278C464.838 53.8693 465.775 52.7614 466.457 51.304C467.147 49.8381 467.493 48.0398 467.493 45.9091Z" fill="#292929"/>
</svg>
